<svg width="552" height="336" viewBox="0 0 552 336" fill="none" xmlns="http://www.w3.org/2000/svg">
<g filter="url(#filter0_d_3_9)">
<path d="M547 1H5V327C5 327 40 261 90 268C140 275 142 304 191 302C240 300 227 236 313 236C399 236 457.191 267.17 547 276V1Z" fill="#1892C6"/>
<path d="M547 1H5V327C5 327 40 261 90 268C140 275 142 304 191 302C240 300 227 236 313 236C399 236 457.191 267.17 547 276V1Z" stroke="#1892C6"/>
</g>
<defs>
<filter id="filter0_d_3_9" x="0.5" y="0.5" width="551" height="334.734" filterUnits="userSpaceOnUse" color-interpolation-filters="sRGB">
<feFlood flood-opacity="0" result="BackgroundImageFix"/>
<feColorMatrix in="SourceAlpha" type="matrix" values="0 0 0 0 0 0 0 0 0 0 0 0 0 0 0 0 0 0 127 0" result="hardAlpha"/>
<feOffset dy="4"/>
<feGaussianBlur stdDeviation="2"/>
<feComposite in2="hardAlpha" operator="out"/>
<feColorMatrix type="matrix" values="0 0 0 0 0 0 0 0 0 0 0 0 0 0 0 0 0 0 0.25 0"/>
<feBlend mode="normal" in2="BackgroundImageFix" result="effect1_dropShadow_3_9"/>
<feBlend mode="normal" in="SourceGraphic" in2="effect1_dropShadow_3_9" result="shape"/>
</filter>
</defs>
</svg>
