<?xml version="1.0" encoding="UTF-8" standalone="no"?>
<!-- Created with Inkscape (http://www.inkscape.org/) -->

<svg
   xmlns:dc="http://purl.org/dc/elements/1.1/"
   xmlns:cc="http://creativecommons.org/ns#"
   xmlns:rdf="http://www.w3.org/1999/02/22-rdf-syntax-ns#"
   xmlns:svg="http://www.w3.org/2000/svg"
   xmlns="http://www.w3.org/2000/svg"
   xmlns:sodipodi="http://sodipodi.sourceforge.net/DTD/sodipodi-0.dtd"
   xmlns:inkscape="http://www.inkscape.org/namespaces/inkscape"
   version="1.1"
   id="svg9571"
   xml:space="preserve"
   width="816"
   height="1056"
   viewBox="0 0 816 1056"
   sodipodi:docname="blue-low-poly-background.svg"
   inkscape:version="0.92.4 (5da689c313, 2019-01-14)"><metadata
     id="metadata9577"><rdf:RDF><cc:Work
         rdf:about=""><dc:format>image/svg+xml</dc:format><dc:type
           rdf:resource="http://purl.org/dc/dcmitype/StillImage" /><dc:title></dc:title></cc:Work></rdf:RDF></metadata><defs
     id="defs9575"><clipPath
       clipPathUnits="userSpaceOnUse"
       id="clipPath9587"><path
         d="M 0,792 H 612 V 0 H 0 Z"
         id="path9585"
         inkscape:connector-curvature="0" /></clipPath></defs><sodipodi:namedview
     pagecolor="#ffffff"
     bordercolor="#666666"
     borderopacity="1"
     objecttolerance="10"
     gridtolerance="10"
     guidetolerance="10"
     inkscape:pageopacity="0"
     inkscape:pageshadow="2"
     inkscape:window-width="1920"
     inkscape:window-height="1018"
     id="namedview9573"
     showgrid="false"
     inkscape:zoom="0.6200609"
     inkscape:cx="436.27119"
     inkscape:cy="483.25424"
     inkscape:window-x="-8"
     inkscape:window-y="-8"
     inkscape:window-maximized="1"
     inkscape:current-layer="g9579" /><g
     id="g9579"
     inkscape:groupmode="layer"
     inkscape:label="abstract-260-publicdomainvectors [Converted]"
     transform="matrix(1.3333333,0,0,-1.3333333,0,1056)"><g
       id="g9581"><g
         id="g9583"
         clip-path="url(#clipPath9587)"><path
           d="m 1.749,37.793 c 40.236,1.43 71.941,2.556 71.941,2.556 0,0 -1.881,-17.345 -4.424,-40.779 H 1.749 Z"
           style="fill:#74b5dd;fill-opacity:1;fill-rule:nonzero;stroke:none"
           id="path9589"
           inkscape:connector-curvature="0" /><path
           d="m 1.749,37.793 c 40.236,1.43 71.941,2.556 71.941,2.556 0,0 -1.881,-17.345 -4.424,-40.779 H 1.749 Z"
           style="fill:none;stroke:#74b5dd;stroke-width:0.93199998;stroke-linecap:butt;stroke-linejoin:miter;stroke-miterlimit:4;stroke-dasharray:none;stroke-opacity:1"
           id="path9591"
           inkscape:connector-curvature="0" /><path
           d="m 69.266,-0.43 c 2.543,23.434 4.424,40.779 4.424,40.779 L 191.924,19.795 c 0,0 -7.548,-7.996 -19.087,-20.225 z"
           style="fill:#6faed6;fill-opacity:1;fill-rule:nonzero;stroke:none"
           id="path9593"
           inkscape:connector-curvature="0" /><path
           d="m 69.266,-0.43 c 2.543,23.434 4.424,40.779 4.424,40.779 L 191.924,19.795 c 0,0 -7.548,-7.996 -19.087,-20.225 z"
           style="fill:none;stroke:#6faed6;stroke-width:0.93199998;stroke-linecap:butt;stroke-linejoin:miter;stroke-miterlimit:4;stroke-dasharray:none;stroke-opacity:1"
           id="path9595"
           inkscape:connector-curvature="0" /><path
           d="m 172.837,-0.43 c 11.539,12.229 19.087,20.225 19.087,20.225 0,0 0.546,-7.746 1.427,-20.225 z"
           style="fill:#76b0d6;fill-opacity:1;fill-rule:nonzero;stroke:none"
           id="path9597"
           inkscape:connector-curvature="0" /><path
           d="m 172.837,-0.43 c 11.539,12.229 19.087,20.225 19.087,20.225 0,0 0.546,-7.746 1.427,-20.225 z"
           style="fill:none;stroke:#76b0d6;stroke-width:0.93199998;stroke-linecap:butt;stroke-linejoin:miter;stroke-miterlimit:4;stroke-dasharray:none;stroke-opacity:1"
           id="path9599"
           inkscape:connector-curvature="0" /><path
           d="m 193.351,-0.43 c -0.881,12.479 -1.427,20.225 -1.427,20.225 0,0 56.551,-11.593 98.656,-20.225 z"
           style="fill:#73a8d0;fill-opacity:1;fill-rule:nonzero;stroke:none"
           id="path9601"
           inkscape:connector-curvature="0" /><path
           d="m 193.351,-0.43 c -0.881,12.479 -1.427,20.225 -1.427,20.225 0,0 56.551,-11.593 98.656,-20.225 z"
           style="fill:none;stroke:#73a8d0;stroke-width:0.93199998;stroke-linecap:butt;stroke-linejoin:miter;stroke-miterlimit:4;stroke-dasharray:none;stroke-opacity:1"
           id="path9603"
           inkscape:connector-curvature="0" /><path
           d="m 350.979,-0.43 c 28.688,16.973 87.056,51.504 87.056,51.504 0,0 7.197,-22.703 16.327,-51.504 z"
           style="fill:#709bc5;fill-opacity:1;fill-rule:nonzero;stroke:none"
           id="path9605"
           inkscape:connector-curvature="0" /><path
           d="m 350.979,-0.43 c 28.688,16.973 87.056,51.504 87.056,51.504 0,0 7.197,-22.703 16.327,-51.504 z"
           style="fill:none;stroke:#709bc5;stroke-width:0.93199998;stroke-linecap:butt;stroke-linejoin:miter;stroke-miterlimit:4;stroke-dasharray:none;stroke-opacity:1"
           id="path9607"
           inkscape:connector-curvature="0" /><path
           d="M 612.596,-0.43 H 454.362 c -9.13,28.801 -16.327,51.504 -16.327,51.504 0,0 107.832,-6.051 174.561,-9.797 z"
           style="fill:#6d93bd;fill-opacity:1;fill-rule:nonzero;stroke:none"
           id="path9609"
           inkscape:connector-curvature="0" /><path
           d="M 612.596,-0.43 H 454.362 c -9.13,28.801 -16.327,51.504 -16.327,51.504 0,0 107.832,-6.051 174.561,-9.797 z"
           style="fill:none;stroke:#6d93bd;stroke-width:0.93199998;stroke-linecap:butt;stroke-linejoin:miter;stroke-miterlimit:4;stroke-dasharray:none;stroke-opacity:1"
           id="path9611"
           inkscape:connector-curvature="0" /><path
           d="M 1.749,149.924 C 27.501,110.7 73.69,40.349 73.69,40.349 c 0,0 -31.705,-1.126 -71.941,-2.556 z"
           style="fill:#5daedc;fill-opacity:1;fill-rule:nonzero;stroke:none"
           id="path9613"
           inkscape:connector-curvature="0" /><path
           d="M 1.749,149.924 C 27.501,110.7 73.69,40.349 73.69,40.349 c 0,0 -31.705,-1.126 -71.941,-2.556 z"
           style="fill:none;stroke:#5daedc;stroke-width:0.93199998;stroke-linecap:butt;stroke-linejoin:miter;stroke-miterlimit:4;stroke-dasharray:none;stroke-opacity:1"
           id="path9615"
           inkscape:connector-curvature="0" /><path
           d="m 1.749,173.225 c 46.71,-6.569 174.405,-24.524 174.405,-24.524 L 73.69,40.349 c 0,0 -46.189,70.351 -71.941,109.575 z"
           style="fill:#4ea3d9;fill-opacity:1;fill-rule:nonzero;stroke:none"
           id="path9617"
           inkscape:connector-curvature="0" /><path
           d="m 1.749,173.225 c 46.71,-6.569 174.405,-24.524 174.405,-24.524 L 73.69,40.349 c 0,0 -46.189,70.351 -71.941,109.575 z"
           style="fill:none;stroke:#4ea3d9;stroke-width:0.93199998;stroke-linecap:butt;stroke-linejoin:miter;stroke-miterlimit:4;stroke-dasharray:none;stroke-opacity:1"
           id="path9619"
           inkscape:connector-curvature="0" /><path
           d="M 191.924,19.795 176.154,148.701 73.69,40.349 Z"
           style="fill:#57a5d5;fill-opacity:1;fill-rule:nonzero;stroke:none"
           id="path9621"
           inkscape:connector-curvature="0" /><path
           d="M 191.924,19.795 176.154,148.701 73.69,40.349 Z"
           style="fill:none;stroke:#57a5d5;stroke-width:0.93199998;stroke-linecap:butt;stroke-linejoin:miter;stroke-miterlimit:4;stroke-dasharray:none;stroke-opacity:1"
           id="path9623"
           inkscape:connector-curvature="0" /><path
           d="M 344.842,178.824 176.154,148.701 191.924,19.795 Z"
           style="fill:#4d9bd2;fill-opacity:1;fill-rule:nonzero;stroke:none"
           id="path9625"
           inkscape:connector-curvature="0" /><path
           d="M 344.842,178.824 176.154,148.701 191.924,19.795 Z"
           style="fill:none;stroke:#4d9bd2;stroke-width:0.93199998;stroke-linecap:butt;stroke-linejoin:miter;stroke-miterlimit:4;stroke-dasharray:none;stroke-opacity:1"
           id="path9627"
           inkscape:connector-curvature="0" /><path
           d="m 290.58,-0.43 c -42.105,8.632 -98.656,20.225 -98.656,20.225 l 152.918,159.029 c 0,0 -7.061,-141.45 -8.946,-179.254 z"
           style="fill:#599ccd;fill-opacity:1;fill-rule:nonzero;stroke:none"
           id="path9629"
           inkscape:connector-curvature="0" /><path
           d="m 290.58,-0.43 c -42.105,8.632 -98.656,20.225 -98.656,20.225 l 152.918,159.029 c 0,0 -7.061,-141.45 -8.946,-179.254 z"
           style="fill:none;stroke:#599ccd;stroke-width:0.93199998;stroke-linecap:butt;stroke-linejoin:miter;stroke-miterlimit:4;stroke-dasharray:none;stroke-opacity:1"
           id="path9631"
           inkscape:connector-curvature="0" /><path
           d="m 335.896,-0.43 c 1.885,37.804 8.946,179.254 8.946,179.254 l 93.193,-127.75 c 0,0 -58.368,-34.531 -87.056,-51.504 z"
           style="fill:#5896c8;fill-opacity:1;fill-rule:nonzero;stroke:none"
           id="path9633"
           inkscape:connector-curvature="0" /><path
           d="m 335.896,-0.43 c 1.885,37.804 8.946,179.254 8.946,179.254 l 93.193,-127.75 c 0,0 -58.368,-34.531 -87.056,-51.504 z"
           style="fill:none;stroke:#5896c8;stroke-width:0.93199998;stroke-linecap:butt;stroke-linejoin:miter;stroke-miterlimit:4;stroke-dasharray:none;stroke-opacity:1"
           id="path9635"
           inkscape:connector-curvature="0" /><path
           d="M 528.857,211.747 344.842,178.824 438.035,51.074 Z"
           style="fill:#468dc7;fill-opacity:1;fill-rule:nonzero;stroke:none"
           id="path9637"
           inkscape:connector-curvature="0" /><path
           d="M 528.857,211.747 344.842,178.824 438.035,51.074 Z"
           style="fill:none;stroke:#468dc7;stroke-width:0.93199998;stroke-linecap:butt;stroke-linejoin:miter;stroke-miterlimit:4;stroke-dasharray:none;stroke-opacity:1"
           id="path9639"
           inkscape:connector-curvature="0" /><path
           d="m 612.596,41.277 c -66.729,3.746 -174.561,9.797 -174.561,9.797 l 90.822,160.673 c 0,0 45.512,-58.321 83.739,-107.309 z"
           style="fill:#538ac0;fill-opacity:1;fill-rule:nonzero;stroke:none"
           id="path9641"
           inkscape:connector-curvature="0" /><path
           d="m 612.596,41.277 c -66.729,3.746 -174.561,9.797 -174.561,9.797 l 90.822,160.673 c 0,0 45.512,-58.321 83.739,-107.309 z"
           style="fill:none;stroke:#538ac0;stroke-width:0.93199998;stroke-linecap:butt;stroke-linejoin:miter;stroke-miterlimit:4;stroke-dasharray:none;stroke-opacity:1"
           id="path9643"
           inkscape:connector-curvature="0" /><path
           d="m 612.596,104.438 c -38.227,48.988 -83.739,107.309 -83.739,107.309 0,0 45.34,0.872 83.739,1.61 z"
           style="fill:#4881b9;fill-opacity:1;fill-rule:nonzero;stroke:none"
           id="path9645"
           inkscape:connector-curvature="0" /><path
           d="m 612.596,104.438 c -38.227,48.988 -83.739,107.309 -83.739,107.309 0,0 45.34,0.872 83.739,1.61 z"
           style="fill:none;stroke:#4881b9;stroke-width:0.93199998;stroke-linecap:butt;stroke-linejoin:miter;stroke-miterlimit:4;stroke-dasharray:none;stroke-opacity:1"
           id="path9647"
           inkscape:connector-curvature="0" /><path
           d="m 1.749,352.182 c 21.463,10.862 37.859,19.16 37.859,19.16 0,0 -21.783,-77.932 -37.859,-135.449 z"
           style="fill:#309edd;fill-opacity:1;fill-rule:nonzero;stroke:none"
           id="path9649"
           inkscape:connector-curvature="0" /><path
           d="m 1.749,352.182 c 21.463,10.862 37.859,19.16 37.859,19.16 0,0 -21.783,-77.932 -37.859,-135.449 z"
           style="fill:none;stroke:#309edd;stroke-width:0.93199998;stroke-linecap:butt;stroke-linejoin:miter;stroke-miterlimit:4;stroke-dasharray:none;stroke-opacity:1"
           id="path9651"
           inkscape:connector-curvature="0" /><path
           d="m 1.749,235.893 c 16.076,57.517 37.859,135.449 37.859,135.449 l 96.561,-33.11 c 0,0 -94.981,-102.116 -134.42,-144.517 z"
           style="fill:#2a99d9;fill-opacity:1;fill-rule:nonzero;stroke:none"
           id="path9653"
           inkscape:connector-curvature="0" /><path
           d="m 1.749,235.893 c 16.076,57.517 37.859,135.449 37.859,135.449 l 96.561,-33.11 c 0,0 -94.981,-102.116 -134.42,-144.517 z"
           style="fill:none;stroke:#2a99d9;stroke-width:0.93199998;stroke-linecap:butt;stroke-linejoin:miter;stroke-miterlimit:4;stroke-dasharray:none;stroke-opacity:1"
           id="path9655"
           inkscape:connector-curvature="0" /><path
           d="m 1.749,193.715 c 39.439,42.401 134.42,144.517 134.42,144.517 l 39.985,-189.531 c 0,0 -127.695,17.955 -174.405,24.524 z"
           style="fill:#369bd9;fill-opacity:1;fill-rule:nonzero;stroke:none"
           id="path9657"
           inkscape:connector-curvature="0" /><path
           d="m 1.749,193.715 c 39.439,42.401 134.42,144.517 134.42,144.517 l 39.985,-189.531 c 0,0 -127.695,17.955 -174.405,24.524 z"
           style="fill:none;stroke:#369bd9;stroke-width:0.93199998;stroke-linecap:butt;stroke-linejoin:miter;stroke-miterlimit:4;stroke-dasharray:none;stroke-opacity:1"
           id="path9659"
           inkscape:connector-curvature="0" /><path
           d="M 291.603,279.907 136.169,338.232 176.154,148.701 Z"
           style="fill:#2e94d4;fill-opacity:1;fill-rule:nonzero;stroke:none"
           id="path9661"
           inkscape:connector-curvature="0" /><path
           d="M 291.603,279.907 136.169,338.232 176.154,148.701 Z"
           style="fill:none;stroke:#2e94d4;stroke-width:0.93199998;stroke-linecap:butt;stroke-linejoin:miter;stroke-miterlimit:4;stroke-dasharray:none;stroke-opacity:1"
           id="path9663"
           inkscape:connector-curvature="0" /><path
           d="M 344.842,178.824 291.603,279.907 176.154,148.701 Z"
           style="fill:#3994d1;fill-opacity:1;fill-rule:nonzero;stroke:none"
           id="path9665"
           inkscape:connector-curvature="0" /><path
           d="M 344.842,178.824 291.603,279.907 176.154,148.701 Z"
           style="fill:none;stroke:#3994d1;stroke-width:0.93199998;stroke-linecap:butt;stroke-linejoin:miter;stroke-miterlimit:4;stroke-dasharray:none;stroke-opacity:1"
           id="path9667"
           inkscape:connector-curvature="0" /><path
           d="M 467.617,362.057 291.603,279.907 344.842,178.824 Z"
           style="fill:#2a8ac7;fill-opacity:1;fill-rule:nonzero;stroke:none"
           id="path9669"
           inkscape:connector-curvature="0" /><path
           d="M 467.617,362.057 291.603,279.907 344.842,178.824 Z"
           style="fill:none;stroke:#2a8ac7;stroke-width:0.93199998;stroke-linecap:butt;stroke-linejoin:miter;stroke-miterlimit:4;stroke-dasharray:none;stroke-opacity:1"
           id="path9671"
           inkscape:connector-curvature="0" /><path
           d="M 528.857,211.747 467.617,362.057 344.842,178.824 Z"
           style="fill:#2e88c4;fill-opacity:1;fill-rule:nonzero;stroke:none"
           id="path9673"
           inkscape:connector-curvature="0" /><path
           d="M 528.857,211.747 467.617,362.057 344.842,178.824 Z"
           style="fill:none;stroke:#2e88c4;stroke-width:0.93199998;stroke-linecap:butt;stroke-linejoin:miter;stroke-miterlimit:4;stroke-dasharray:none;stroke-opacity:1"
           id="path9675"
           inkscape:connector-curvature="0" /><path
           d="m 604.762,311.009 -137.145,51.048 61.24,-150.31 z"
           style="fill:#287fbb;fill-opacity:1;fill-rule:nonzero;stroke:none"
           id="path9677"
           inkscape:connector-curvature="0" /><path
           d="m 604.762,311.009 -137.145,51.048 61.24,-150.31 z"
           style="fill:none;stroke:#287fbb;stroke-width:0.93199998;stroke-linecap:butt;stroke-linejoin:miter;stroke-miterlimit:4;stroke-dasharray:none;stroke-opacity:1"
           id="path9679"
           inkscape:connector-curvature="0" /><path
           d="m 612.596,213.357 c -38.399,-0.738 -83.739,-1.61 -83.739,-1.61 l 75.905,99.262 c 0,0 3.074,-4.909 7.834,-12.515 z"
           style="fill:#337eb9;fill-opacity:1;fill-rule:nonzero;stroke:none"
           id="path9681"
           inkscape:connector-curvature="0" /><path
           d="m 612.596,213.357 c -38.399,-0.738 -83.739,-1.61 -83.739,-1.61 l 75.905,99.262 c 0,0 3.074,-4.909 7.834,-12.515 z"
           style="fill:none;stroke:#337eb9;stroke-width:0.93199998;stroke-linecap:butt;stroke-linejoin:miter;stroke-miterlimit:4;stroke-dasharray:none;stroke-opacity:1"
           id="path9683"
           inkscape:connector-curvature="0" /><path
           d="m 612.596,298.494 c -4.76,7.606 -7.834,12.515 -7.834,12.515 0,0 3.209,13.825 7.834,33.749 z"
           style="fill:#2975b0;fill-opacity:1;fill-rule:nonzero;stroke:none"
           id="path9685"
           inkscape:connector-curvature="0" /><path
           d="m 612.596,298.494 c -4.76,7.606 -7.834,12.515 -7.834,12.515 0,0 3.209,13.825 7.834,33.749 z"
           style="fill:none;stroke:#2975b0;stroke-width:0.93199998;stroke-linecap:butt;stroke-linejoin:miter;stroke-miterlimit:4;stroke-dasharray:none;stroke-opacity:1"
           id="path9687"
           inkscape:connector-curvature="0" /><path
           d="m 1.749,391.602 c 22.077,-11.814 37.859,-20.26 37.859,-20.26 0,0 -16.396,-8.298 -37.859,-19.16 z"
           style="fill:#2997d7;fill-opacity:1;fill-rule:nonzero;stroke:none"
           id="path9689"
           inkscape:connector-curvature="0" /><path
           d="m 1.749,391.602 c 22.077,-11.814 37.859,-20.26 37.859,-20.26 0,0 -16.396,-8.298 -37.859,-19.16 z"
           style="fill:none;stroke:#2997d7;stroke-width:0.93199998;stroke-linecap:butt;stroke-linejoin:miter;stroke-miterlimit:4;stroke-dasharray:none;stroke-opacity:1"
           id="path9691"
           inkscape:connector-curvature="0" /><path
           d="m 1.749,504.268 c 36.974,10.664 66.969,19.315 66.969,19.315 L 39.608,371.342 c 0,0 -15.782,8.446 -37.859,20.26 z"
           style="fill:#238bca;fill-opacity:1;fill-rule:nonzero;stroke:none"
           id="path9693"
           inkscape:connector-curvature="0" /><path
           d="m 1.749,504.268 c 36.974,10.664 66.969,19.315 66.969,19.315 L 39.608,371.342 c 0,0 -15.782,8.446 -37.859,20.26 z"
           style="fill:none;stroke:#238bca;stroke-width:0.93199998;stroke-linecap:butt;stroke-linejoin:miter;stroke-miterlimit:4;stroke-dasharray:none;stroke-opacity:1"
           id="path9695"
           inkscape:connector-curvature="0" /><path
           d="M 136.169,338.232 68.718,523.583 39.608,371.342 Z"
           style="fill:#218bca;fill-opacity:1;fill-rule:nonzero;stroke:none"
           id="path9697"
           inkscape:connector-curvature="0" /><path
           d="M 136.169,338.232 68.718,523.583 39.608,371.342 Z"
           style="fill:none;stroke:#218bca;stroke-width:0.93199998;stroke-linecap:butt;stroke-linejoin:miter;stroke-miterlimit:4;stroke-dasharray:none;stroke-opacity:1"
           id="path9699"
           inkscape:connector-curvature="0" /><path
           d="M 211.95,452.581 68.718,523.583 136.169,338.232 Z"
           style="fill:#1f85c3;fill-opacity:1;fill-rule:nonzero;stroke:none"
           id="path9701"
           inkscape:connector-curvature="0" /><path
           d="M 211.95,452.581 68.718,523.583 136.169,338.232 Z"
           style="fill:none;stroke:#1f85c3;stroke-width:0.93199998;stroke-linecap:butt;stroke-linejoin:miter;stroke-miterlimit:4;stroke-dasharray:none;stroke-opacity:1"
           id="path9703"
           inkscape:connector-curvature="0" /><path
           d="M 291.603,279.907 211.95,452.581 136.169,338.232 Z"
           style="fill:#208cca;fill-opacity:1;fill-rule:nonzero;stroke:none"
           id="path9705"
           inkscape:connector-curvature="0" /><path
           d="M 291.603,279.907 211.95,452.581 136.169,338.232 Z"
           style="fill:none;stroke:#208cca;stroke-width:0.93199998;stroke-linecap:butt;stroke-linejoin:miter;stroke-miterlimit:4;stroke-dasharray:none;stroke-opacity:1"
           id="path9707"
           inkscape:connector-curvature="0" /><path
           d="M 376.095,466.32 211.95,452.581 291.603,279.907 Z"
           style="fill:#2281be;fill-opacity:1;fill-rule:nonzero;stroke:none"
           id="path9709"
           inkscape:connector-curvature="0" /><path
           d="M 376.095,466.32 211.95,452.581 291.603,279.907 Z"
           style="fill:none;stroke:#2281be;stroke-width:0.93199998;stroke-linecap:butt;stroke-linejoin:miter;stroke-miterlimit:4;stroke-dasharray:none;stroke-opacity:1"
           id="path9711"
           inkscape:connector-curvature="0" /><path
           d="M 467.617,362.057 376.095,466.32 291.603,279.907 Z"
           style="fill:#2480bd;fill-opacity:1;fill-rule:nonzero;stroke:none"
           id="path9713"
           inkscape:connector-curvature="0" /><path
           d="M 467.617,362.057 376.095,466.32 291.603,279.907 Z"
           style="fill:none;stroke:#2480bd;stroke-width:0.93199998;stroke-linecap:butt;stroke-linejoin:miter;stroke-miterlimit:4;stroke-dasharray:none;stroke-opacity:1"
           id="path9715"
           inkscape:connector-curvature="0" /><path
           d="M 547.178,549.841 376.095,466.32 467.617,362.057 Z"
           style="fill:#286fa8;fill-opacity:1;fill-rule:nonzero;stroke:none"
           id="path9717"
           inkscape:connector-curvature="0" /><path
           d="M 547.178,549.841 376.095,466.32 467.617,362.057 Z"
           style="fill:none;stroke:#286fa8;stroke-width:0.93199998;stroke-linecap:butt;stroke-linejoin:miter;stroke-miterlimit:4;stroke-dasharray:none;stroke-opacity:1"
           id="path9719"
           inkscape:connector-curvature="0" /><path
           d="M 612.596,464.574 C 561.011,428.099 467.617,362.057 467.617,362.057 l 79.561,187.784 c 0,0 36.767,-22.999 65.418,-40.921 z"
           style="fill:#2868a1;fill-opacity:1;fill-rule:nonzero;stroke:none"
           id="path9721"
           inkscape:connector-curvature="0" /><path
           d="M 612.596,464.574 C 561.011,428.099 467.617,362.057 467.617,362.057 l 79.561,187.784 c 0,0 36.767,-22.999 65.418,-40.921 z"
           style="fill:none;stroke:#2868a1;stroke-width:0.93199998;stroke-linecap:butt;stroke-linejoin:miter;stroke-miterlimit:4;stroke-dasharray:none;stroke-opacity:1"
           id="path9723"
           inkscape:connector-curvature="0" /><path
           d="m 612.596,344.758 c -4.625,-19.924 -7.834,-33.749 -7.834,-33.749 l -137.145,51.048 c 0,0 93.394,66.042 144.979,102.517 z"
           style="fill:#2972ad;fill-opacity:1;fill-rule:nonzero;stroke:none"
           id="path9725"
           inkscape:connector-curvature="0" /><path
           d="m 612.596,344.758 c -4.625,-19.924 -7.834,-33.749 -7.834,-33.749 l -137.145,51.048 c 0,0 93.394,66.042 144.979,102.517 z"
           style="fill:none;stroke:#2972ad;stroke-width:0.93199998;stroke-linecap:butt;stroke-linejoin:miter;stroke-miterlimit:4;stroke-dasharray:none;stroke-opacity:1"
           id="path9727"
           inkscape:connector-curvature="0" /><path
           d="m 1.749,614.954 c 11.491,-6.085 18.634,-9.866 18.634,-9.866 0,0 -7.257,-6.55 -18.634,-16.817 z"
           style="fill:#267eba;fill-opacity:1;fill-rule:nonzero;stroke:none"
           id="path9729"
           inkscape:connector-curvature="0" /><path
           d="m 1.749,614.954 c 11.491,-6.085 18.634,-9.866 18.634,-9.866 0,0 -7.257,-6.55 -18.634,-16.817 z"
           style="fill:none;stroke:#267eba;stroke-width:0.93199998;stroke-linecap:butt;stroke-linejoin:miter;stroke-miterlimit:4;stroke-dasharray:none;stroke-opacity:1"
           id="path9731"
           inkscape:connector-curvature="0" /><path
           d="m 1.749,588.271 c 11.377,10.267 18.634,16.817 18.634,16.817 l 48.335,-81.505 c 0,0 -29.995,-8.651 -66.969,-19.315 z"
           style="fill:#2281be;fill-opacity:1;fill-rule:nonzero;stroke:none"
           id="path9733"
           inkscape:connector-curvature="0" /><path
           d="m 1.749,588.271 c 11.377,10.267 18.634,16.817 18.634,16.817 l 48.335,-81.505 c 0,0 -29.995,-8.651 -66.969,-19.315 z"
           style="fill:none;stroke:#2281be;stroke-width:0.93199998;stroke-linecap:butt;stroke-linejoin:miter;stroke-miterlimit:4;stroke-dasharray:none;stroke-opacity:1"
           id="path9735"
           inkscape:connector-curvature="0" /><path
           d="M 159.87,617.443 20.383,605.088 68.718,523.583 Z"
           style="fill:#2675b0;fill-opacity:1;fill-rule:nonzero;stroke:none"
           id="path9737"
           inkscape:connector-curvature="0" /><path
           d="M 159.87,617.443 20.383,605.088 68.718,523.583 Z"
           style="fill:none;stroke:#2675b0;stroke-width:0.93199998;stroke-linecap:butt;stroke-linejoin:miter;stroke-miterlimit:4;stroke-dasharray:none;stroke-opacity:1"
           id="path9739"
           inkscape:connector-curvature="0" /><path
           d="M 211.95,452.581 159.87,617.443 68.718,523.583 Z"
           style="fill:#2478b4;fill-opacity:1;fill-rule:nonzero;stroke:none"
           id="path9741"
           inkscape:connector-curvature="0" /><path
           d="M 211.95,452.581 159.87,617.443 68.718,523.583 Z"
           style="fill:none;stroke:#2478b4;stroke-width:0.93199998;stroke-linecap:butt;stroke-linejoin:miter;stroke-miterlimit:4;stroke-dasharray:none;stroke-opacity:1"
           id="path9743"
           inkscape:connector-curvature="0" /><path
           d="M 376.095,466.32 159.87,617.443 211.95,452.581 Z"
           style="fill:#2675b0;fill-opacity:1;fill-rule:nonzero;stroke:none"
           id="path9745"
           inkscape:connector-curvature="0" /><path
           d="M 376.095,466.32 159.87,617.443 211.95,452.581 Z"
           style="fill:none;stroke:#2675b0;stroke-width:0.93199998;stroke-linecap:butt;stroke-linejoin:miter;stroke-miterlimit:4;stroke-dasharray:none;stroke-opacity:1"
           id="path9747"
           inkscape:connector-curvature="0" /><path
           d="M 286.688,709.065 159.87,617.443 376.095,466.32 Z"
           style="fill:#2667a1;fill-opacity:1;fill-rule:nonzero;stroke:none"
           id="path9749"
           inkscape:connector-curvature="0" /><path
           d="M 286.688,709.065 159.87,617.443 376.095,466.32 Z"
           style="fill:none;stroke:#2667a1;stroke-width:0.93199998;stroke-linecap:butt;stroke-linejoin:miter;stroke-miterlimit:4;stroke-dasharray:none;stroke-opacity:1"
           id="path9751"
           inkscape:connector-curvature="0" /><path
           d="M 523.18,628.632 286.688,709.065 376.095,466.32 Z"
           style="fill:#266096;fill-opacity:1;fill-rule:nonzero;stroke:none"
           id="path9753"
           inkscape:connector-curvature="0" /><path
           d="M 523.18,628.632 286.688,709.065 376.095,466.32 Z"
           style="fill:none;stroke:#266096;stroke-width:0.93199998;stroke-linecap:butt;stroke-linejoin:miter;stroke-miterlimit:4;stroke-dasharray:none;stroke-opacity:1"
           id="path9755"
           inkscape:connector-curvature="0" /><path
           d="M 547.178,549.841 523.18,628.632 376.095,466.32 Z"
           style="fill:#266199;fill-opacity:1;fill-rule:nonzero;stroke:none"
           id="path9757"
           inkscape:connector-curvature="0" /><path
           d="M 547.178,549.841 523.18,628.632 376.095,466.32 Z"
           style="fill:none;stroke:#266199;stroke-width:0.93199998;stroke-linecap:butt;stroke-linejoin:miter;stroke-miterlimit:4;stroke-dasharray:none;stroke-opacity:1"
           id="path9759"
           inkscape:connector-curvature="0" /><path
           d="m 612.596,615.951 c -31.349,-31.681 -65.418,-66.11 -65.418,-66.11 l -23.998,78.791 c 0,0 49.173,13.726 89.416,24.96 z"
           style="fill:#285287;fill-opacity:1;fill-rule:nonzero;stroke:none"
           id="path9761"
           inkscape:connector-curvature="0" /><path
           d="m 612.596,615.951 c -31.349,-31.681 -65.418,-66.11 -65.418,-66.11 l -23.998,78.791 c 0,0 49.173,13.726 89.416,24.96 z"
           style="fill:none;stroke:#285287;stroke-width:0.93199998;stroke-linecap:butt;stroke-linejoin:miter;stroke-miterlimit:4;stroke-dasharray:none;stroke-opacity:1"
           id="path9763"
           inkscape:connector-curvature="0" /><path
           d="m 612.596,508.92 c -28.651,17.922 -65.418,40.921 -65.418,40.921 0,0 34.069,34.429 65.418,66.11 z"
           style="fill:#27578c;fill-opacity:1;fill-rule:nonzero;stroke:none"
           id="path9765"
           inkscape:connector-curvature="0" /><path
           d="m 612.596,508.92 c -28.651,17.922 -65.418,40.921 -65.418,40.921 0,0 34.069,34.429 65.418,66.11 z"
           style="fill:none;stroke:#27578c;stroke-width:0.93199998;stroke-linecap:butt;stroke-linejoin:miter;stroke-miterlimit:4;stroke-dasharray:none;stroke-opacity:1"
           id="path9767"
           inkscape:connector-curvature="0" /><path
           d="m 1.772,792 c 24.491,-12.566 43.306,-22.22 43.306,-22.22 0,0 -17.923,-5.584 -43.329,-13.499 V 792 Z"
           style="fill:#28649b;fill-opacity:1;fill-rule:nonzero;stroke:none"
           id="path9769"
           inkscape:connector-curvature="0" /><path
           d="m 1.772,792 c 24.491,-12.566 43.306,-22.22 43.306,-22.22 0,0 -17.923,-5.584 -43.329,-13.499 V 792 Z"
           style="fill:none;stroke:#28649b;stroke-width:0.93199998;stroke-linecap:butt;stroke-linejoin:miter;stroke-miterlimit:4;stroke-dasharray:none;stroke-opacity:1"
           id="path9771"
           inkscape:connector-curvature="0" /><path
           d="m 1.749,756.281 c 25.406,7.915 43.329,13.499 43.329,13.499 L 20.383,605.088 c 0,0 -7.143,3.781 -18.634,9.866 z"
           style="fill:#286ca5;fill-opacity:1;fill-rule:nonzero;stroke:none"
           id="path9773"
           inkscape:connector-curvature="0" /><path
           d="m 1.749,756.281 c 25.406,7.915 43.329,13.499 43.329,13.499 L 20.383,605.088 c 0,0 -7.143,3.781 -18.634,9.866 z"
           style="fill:none;stroke:#286ca5;stroke-width:0.93199998;stroke-linecap:butt;stroke-linejoin:miter;stroke-miterlimit:4;stroke-dasharray:none;stroke-opacity:1"
           id="path9775"
           inkscape:connector-curvature="0" /><path
           d="M 159.87,617.443 45.078,769.78 20.383,605.088 Z"
           style="fill:#276aa2;fill-opacity:1;fill-rule:nonzero;stroke:none"
           id="path9777"
           inkscape:connector-curvature="0" /><path
           d="M 159.87,617.443 45.078,769.78 20.383,605.088 Z"
           style="fill:none;stroke:#276aa2;stroke-width:0.93199998;stroke-linecap:butt;stroke-linejoin:miter;stroke-miterlimit:4;stroke-dasharray:none;stroke-opacity:1"
           id="path9779"
           inkscape:connector-curvature="0" /><path
           d="M 142.918,792 C 150.032,718.753 159.87,617.443 159.87,617.443 L 45.078,769.78 c 0,0 8.815,9.351 20.948,22.22 z"
           style="fill:#255c92;fill-opacity:1;fill-rule:nonzero;stroke:none"
           id="path9781"
           inkscape:connector-curvature="0" /><path
           d="M 142.918,792 C 150.032,718.753 159.87,617.443 159.87,617.443 L 45.078,769.78 c 0,0 8.815,9.351 20.948,22.22 z"
           style="fill:none;stroke:#255c92;stroke-width:0.93199998;stroke-linecap:butt;stroke-linejoin:miter;stroke-miterlimit:4;stroke-dasharray:none;stroke-opacity:1"
           id="path9783"
           inkscape:connector-curvature="0" /><path
           d="m 206.886,792 c 39.123,-40.659 79.802,-82.935 79.802,-82.935 L 159.87,617.443 c 0,0 -9.838,101.31 -16.952,174.557 z"
           style="fill:#255a90;fill-opacity:1;fill-rule:nonzero;stroke:none"
           id="path9785"
           inkscape:connector-curvature="0" /><path
           d="m 206.886,792 c 39.123,-40.659 79.802,-82.935 79.802,-82.935 L 159.87,617.443 c 0,0 -9.838,101.31 -16.952,174.557 z"
           style="fill:none;stroke:#255a90;stroke-width:0.93199998;stroke-linecap:butt;stroke-linejoin:miter;stroke-miterlimit:4;stroke-dasharray:none;stroke-opacity:1"
           id="path9787"
           inkscape:connector-curvature="0" /><path
           d="m 334.884,792 c 25.601,-9.506 43.109,-16.007 43.109,-16.007 l -91.305,-66.928 c 0,0 -40.679,42.276 -79.802,82.935 z"
           style="fill:#264e82;fill-opacity:1;fill-rule:nonzero;stroke:none"
           id="path9789"
           inkscape:connector-curvature="0" /><path
           d="m 334.884,792 c 25.601,-9.506 43.109,-16.007 43.109,-16.007 l -91.305,-66.928 c 0,0 -40.679,42.276 -79.802,82.935 z"
           style="fill:none;stroke:#264e82;stroke-width:0.93199998;stroke-linecap:butt;stroke-linejoin:miter;stroke-miterlimit:4;stroke-dasharray:none;stroke-opacity:1"
           id="path9791"
           inkscape:connector-curvature="0" /><path
           d="M 523.18,628.632 377.993,775.993 286.688,709.065 Z"
           style="fill:#265185;fill-opacity:1;fill-rule:nonzero;stroke:none"
           id="path9793"
           inkscape:connector-curvature="0" /><path
           d="M 523.18,628.632 377.993,775.993 286.688,709.065 Z"
           style="fill:none;stroke:#265185;stroke-width:0.93199998;stroke-linecap:butt;stroke-linejoin:miter;stroke-miterlimit:4;stroke-dasharray:none;stroke-opacity:1"
           id="path9795"
           inkscape:connector-curvature="0" /><path
           d="m 521.365,792 c 0.281,-25.329 1.815,-163.368 1.815,-163.368 L 377.993,775.993 c 0,0 73.068,10.182 114.862,16.007 z"
           style="fill:#27487b;fill-opacity:1;fill-rule:nonzero;stroke:none"
           id="path9797"
           inkscape:connector-curvature="0" /><path
           d="m 521.365,792 c 0.281,-25.329 1.815,-163.368 1.815,-163.368 L 377.993,775.993 c 0,0 73.068,10.182 114.862,16.007 z"
           style="fill:none;stroke:#27487b;stroke-width:0.93199998;stroke-linecap:butt;stroke-linejoin:miter;stroke-miterlimit:4;stroke-dasharray:none;stroke-opacity:1"
           id="path9799"
           inkscape:connector-curvature="0" /><path
           d="m 525.745,792 c 13.155,-11.798 53.211,-47.721 86.851,-77.893 v -60.515 c -40.243,-11.234 -89.416,-24.96 -89.416,-24.96 0,0 -1.534,138.039 -1.815,163.368 z"
           style="fill:#284779;fill-opacity:1;fill-rule:nonzero;stroke:none"
           id="path9801"
           inkscape:connector-curvature="0" /><path
           d="m 525.745,792 c 13.155,-11.798 53.211,-47.721 86.851,-77.893 v -60.515 c -40.243,-11.234 -89.416,-24.96 -89.416,-24.96 0,0 -1.534,138.039 -1.815,163.368 z"
           style="fill:none;stroke:#284779;stroke-width:0.93199998;stroke-linecap:butt;stroke-linejoin:miter;stroke-miterlimit:4;stroke-dasharray:none;stroke-opacity:1"
           id="path9803"
           inkscape:connector-curvature="0" /><path
           d="M 612.596,792 V 714.107 C 578.956,744.279 538.9,780.202 525.745,792 Z"
           style="fill:#28396b;fill-opacity:1;fill-rule:nonzero;stroke:none"
           id="path9805"
           inkscape:connector-curvature="0" /><path
           d="M 612.596,792 V 714.107 C 578.956,744.279 538.9,780.202 525.745,792 Z"
           style="fill:none;stroke:#28396b;stroke-width:0.93199998;stroke-linecap:butt;stroke-linejoin:miter;stroke-miterlimit:4;stroke-dasharray:none;stroke-opacity:1"
           id="path9807"
           inkscape:connector-curvature="0" /><path
           d="M 66.026,792 C 53.893,779.131 45.078,769.78 45.078,769.78 c 0,0 -18.815,9.654 -43.306,22.22 z"
           style="fill:#26568b;fill-opacity:1;fill-rule:nonzero;stroke:none"
           id="path9809"
           inkscape:connector-curvature="0" /><path
           d="M 66.026,792 C 53.893,779.131 45.078,769.78 45.078,769.78 c 0,0 -18.815,9.654 -43.306,22.22 z"
           style="fill:none;stroke:#26568b;stroke-width:0.93199998;stroke-linecap:butt;stroke-linejoin:miter;stroke-miterlimit:4;stroke-dasharray:none;stroke-opacity:1"
           id="path9811"
           inkscape:connector-curvature="0" /><path
           d="m 492.855,792 c -41.794,-5.825 -114.862,-16.007 -114.862,-16.007 0,0 -17.508,6.501 -43.109,16.007 z"
           style="fill:#284476;fill-opacity:1;fill-rule:nonzero;stroke:none"
           id="path9813"
           inkscape:connector-curvature="0" /><path
           d="m 492.855,792 c -41.794,-5.825 -114.862,-16.007 -114.862,-16.007 0,0 -17.508,6.501 -43.109,16.007 z"
           style="fill:none;stroke:#284476;stroke-width:0.93199998;stroke-linecap:butt;stroke-linejoin:miter;stroke-miterlimit:4;stroke-dasharray:none;stroke-opacity:1"
           id="path9815"
           inkscape:connector-curvature="0" /></g></g></g></svg>