<?xml version="1.0" encoding="UTF-8" standalone="no"?>
<!-- Created with Inkscape (http://www.inkscape.org/) -->

<svg
   xmlns:dc="http://purl.org/dc/elements/1.1/"
   xmlns:cc="http://creativecommons.org/ns#"
   xmlns:rdf="http://www.w3.org/1999/02/22-rdf-syntax-ns#"
   xmlns:svg="http://www.w3.org/2000/svg"
   xmlns="http://www.w3.org/2000/svg"
   xmlns:sodipodi="http://sodipodi.sourceforge.net/DTD/sodipodi-0.dtd"
   xmlns:inkscape="http://www.inkscape.org/namespaces/inkscape"
   version="1.1"
   id="svg815"
   xml:space="preserve"
   width="1122.52"
   height="793.70135"
   viewBox="0 0 1122.52 793.70135"
   sodipodi:docname="blue-lines-curved-grid.svg"
   inkscape:version="0.92.4 (5da689c313, 2019-01-14)"><metadata
     id="metadata821"><rdf:RDF><cc:Work
         rdf:about=""><dc:format>image/svg+xml</dc:format><dc:type
           rdf:resource="http://purl.org/dc/dcmitype/StillImage" /><dc:title></dc:title></cc:Work></rdf:RDF></metadata><defs
     id="defs819"><clipPath
       clipPathUnits="userSpaceOnUse"
       id="clipPath831"><path
         d="M 0,595.276 H 841.89 V 0 H 0 Z"
         id="path829"
         inkscape:connector-curvature="0" /></clipPath><clipPath
       clipPathUnits="userSpaceOnUse"
       id="clipPath839"><path
         d="M 337.369,70.6113 H 841.33 V 0.0332031 H 337.369 Z"
         id="path837"
         inkscape:connector-curvature="0" /></clipPath><clipPath
       clipPathUnits="userSpaceOnUse"
       id="clipPath853"><path
         d="M 198.583,119.359 H 841.33 V 0.0332031 H 198.583 Z"
         id="path851"
         inkscape:connector-curvature="0" /></clipPath><clipPath
       clipPathUnits="userSpaceOnUse"
       id="clipPath867"><path
         d="M 63.271,165.858 H 841.33 V 0.0332031 H 63.271 Z"
         id="path865"
         inkscape:connector-curvature="0" /></clipPath><clipPath
       clipPathUnits="userSpaceOnUse"
       id="clipPath881"><path
         d="M 0.237793,208.744 H 841.33 V 60.4219 H 0.237793 Z"
         id="path879"
         inkscape:connector-curvature="0" /></clipPath><clipPath
       clipPathUnits="userSpaceOnUse"
       id="clipPath895"><path
         d="M 0.237793,246.558 H 841.33 V 103.061 H 0.237793 Z"
         id="path893"
         inkscape:connector-curvature="0" /></clipPath><clipPath
       clipPathUnits="userSpaceOnUse"
       id="clipPath909"><path
         d="M 0.237793,278.031 H 841.33 V 109.699 H 0.237793 Z"
         id="path907"
         inkscape:connector-curvature="0" /></clipPath><clipPath
       clipPathUnits="userSpaceOnUse"
       id="clipPath923"><path
         d="M 0.237793,302.862 H 841.33 V 107.971 H 0.237793 Z"
         id="path921"
         inkscape:connector-curvature="0" /></clipPath><clipPath
       clipPathUnits="userSpaceOnUse"
       id="clipPath937"><path
         d="M 0.237793,319.893 H 841.33 V 97.7207 H 0.237793 Z"
         id="path935"
         inkscape:connector-curvature="0" /></clipPath><clipPath
       clipPathUnits="userSpaceOnUse"
       id="clipPath951"><path
         d="M 0.237793,330.645 H 841.33 V 78.2656 H 0.237793 Z"
         id="path949"
         inkscape:connector-curvature="0" /></clipPath><clipPath
       clipPathUnits="userSpaceOnUse"
       id="clipPath965"><path
         d="M 0.237793,335.155 H 841.33 V 44.1523 H 0.237793 Z"
         id="path963"
         inkscape:connector-curvature="0" /></clipPath><clipPath
       clipPathUnits="userSpaceOnUse"
       id="clipPath979"><path
         d="M 0.237793,335.868 H 841.234 V 0.0332031 H 0.237793 Z"
         id="path977"
         inkscape:connector-curvature="0" /></clipPath><clipPath
       clipPathUnits="userSpaceOnUse"
       id="clipPath993"><path
         d="M 0.237793,331.879 H 781.471 V 0.0332031 H 0.237793 Z"
         id="path991"
         inkscape:connector-curvature="0" /></clipPath><clipPath
       clipPathUnits="userSpaceOnUse"
       id="clipPath1007"><path
         d="M 0.237793,323.813 H 681.108 V 0.0332031 H 0.237793 Z"
         id="path1005"
         inkscape:connector-curvature="0" /></clipPath><clipPath
       clipPathUnits="userSpaceOnUse"
       id="clipPath1021"><path
         d="M 0.237793,312.373 H 541.054 V 0.0332031 H 0.237793 Z"
         id="path1019"
         inkscape:connector-curvature="0" /></clipPath><clipPath
       clipPathUnits="userSpaceOnUse"
       id="clipPath1035"><path
         d="M 0.237793,298.242 H 408.653 V 0.0332031 H 0.237793 Z"
         id="path1033"
         inkscape:connector-curvature="0" /></clipPath><clipPath
       clipPathUnits="userSpaceOnUse"
       id="clipPath1049"><path
         d="M 0.237793,281.892 H 301.767 V 0.0332031 H 0.237793 Z"
         id="path1047"
         inkscape:connector-curvature="0" /></clipPath><clipPath
       clipPathUnits="userSpaceOnUse"
       id="clipPath1063"><path
         d="M 0.237793,262.729 H 214.976 V 0.0332031 H 0.237793 Z"
         id="path1061"
         inkscape:connector-curvature="0" /></clipPath><clipPath
       clipPathUnits="userSpaceOnUse"
       id="clipPath1077"><path
         d="M 0.237793,236.51 H 143.471 V 0.0332031 H 0.237793 Z"
         id="path1075"
         inkscape:connector-curvature="0" /></clipPath><clipPath
       clipPathUnits="userSpaceOnUse"
       id="clipPath1091"><path
         d="M 0.237793,197.646 H 83.7607 V 0.0332031 H 0.237793 Z"
         id="path1089"
         inkscape:connector-curvature="0" /></clipPath><clipPath
       clipPathUnits="userSpaceOnUse"
       id="clipPath1105"><path
         d="M 0.237793,130.2 H 33.8091 V 0.0332031 H 0.237793 Z"
         id="path1103"
         inkscape:connector-curvature="0" /></clipPath></defs><sodipodi:namedview
     pagecolor="#ffffff"
     bordercolor="#666666"
     borderopacity="1"
     objecttolerance="10"
     gridtolerance="10"
     guidetolerance="10"
     inkscape:pageopacity="0"
     inkscape:pageshadow="2"
     inkscape:window-width="1920"
     inkscape:window-height="1018"
     id="namedview817"
     showgrid="false"
     inkscape:zoom="1.0696719"
     inkscape:cx="561.26001"
     inkscape:cy="396.85068"
     inkscape:window-x="-8"
     inkscape:window-y="-8"
     inkscape:window-maximized="1"
     inkscape:current-layer="g823" /><g
     id="g823"
     inkscape:groupmode="layer"
     inkscape:label="abstract-533-publicdomainvectors.org [Converted]"
     transform="matrix(1.3333333,0,0,-1.3333333,0,793.70133)"><g
       id="g825"><g
         id="g827"
         clip-path="url(#clipPath831)"><g
           id="g833"><g
             id="g835" /><g
             id="g845"><g
               clip-path="url(#clipPath839)"
               id="g843"><path
                 d="m 337.369,0.033 c 74.617,41.687 162.78,69.076 255.228,70.518 80.46,1.244 159.617,-16.709 224.534,-48.893 8.324,-4.131 16.393,-8.483 24.199,-13.028 V 4.112 C 827.871,12.049 813.635,19.41 798.691,26.05 730.271,56.395 648.482,70.928 567.109,65.835 485.885,60.729 409.668,36.001 343.765,0.033 Z"
                 style="fill:#00adef;fill-opacity:1;fill-rule:nonzero;stroke:none"
                 id="path841"
                 inkscape:connector-curvature="0" /></g></g></g><g
           id="g847"><g
             id="g849" /><g
             id="g859"><g
               clip-path="url(#clipPath853)"
               id="g857"><path
                 d="m 198.583,0.033 c 98.246,72.965 243.23,127.8 396.859,118.243 78.247,-4.898 154.916,-26.216 219.03,-60.351 9.244,-4.928 18.202,-10.111 26.858,-15.512 V 37.471 C 827.371,46.293 812.635,54.542 797.201,62.08 730.126,94.778 651.222,113.401 572.071,115.33 428.299,118.79 296.403,67.012 203.106,0.033 Z"
                 style="fill:#00adef;fill-opacity:1;fill-rule:nonzero;stroke:none"
                 id="path855"
                 inkscape:connector-curvature="0" /></g></g></g><g
           id="g861"><g
             id="g863" /><g
             id="g873"><g
               clip-path="url(#clipPath867)"
               id="g871"><path
                 d="m 63.271,0.033 c 35.505,29.545 78.893,60.406 131.983,88.029 105.408,54.709 250.423,92.46 402.4,72.289 C 675,150.04 750.678,124.991 814.629,87.791 823.8,82.45 832.706,76.872 841.33,71.087 V 65.804 C 827.608,75.126 813.177,83.92 798.113,92.073 731.545,128.046 653.937,150.876 575.752,158.745 422.721,174.086 280.821,132.071 178.903,76.251 134.386,51.835 97.093,25.507 65.746,0.033 Z"
                 style="fill:#00adef;fill-opacity:1;fill-rule:nonzero;stroke:none"
                 id="path869"
                 inkscape:connector-curvature="0" /></g></g></g><g
           id="g875"><g
             id="g877" /><g
             id="g887"><g
               clip-path="url(#clipPath881)"
               id="g885"><path
                 d="m 841.33,88.544 c -10.976,7.979 -22.393,15.624 -34.209,22.882 -67.233,41.266 -145.987,69.349 -225.638,83.089 C 426.293,221.31 280.097,192.48 170.901,149.414 100.111,121.468 44.253,88.933 0.238,60.422 v 1.39 c 47.128,31.106 108.367,67.328 187.26,96.974 112.245,42.079 261.077,67.155 415.151,36.081 78.851,-15.937 155.734,-45.992 220.402,-88.34 6.22,-4.074 12.314,-8.256 18.279,-12.535 z"
                 style="fill:#00adef;fill-opacity:1;fill-rule:nonzero;stroke:none"
                 id="path883"
                 inkscape:connector-curvature="0" /></g></g></g><g
           id="g889"><g
             id="g891" /><g
             id="g901"><g
               clip-path="url(#clipPath895)"
               id="g899"><path
                 d="m 841.33,103.061 c -6.913,5.42 -14.002,10.71 -21.255,15.855 -66.367,47.01 -145.13,81.194 -225.802,101.247 -160.4,39.79 -315.481,21.786 -434.259,-13.311 C 97.319,188.317 44.512,165.926 0.238,144.469 v 1.556 c 48.127,23.83 106.616,48.975 177.042,68.695 121.671,34.034 279.195,48.35 438.289,4.287 79.836,-22.096 156.724,-58.234 220.507,-106.315 1.763,-1.33 3.514,-2.668 5.254,-4.014 z"
                 style="fill:#00adef;fill-opacity:1;fill-rule:nonzero;stroke:none"
                 id="path897"
                 inkscape:connector-curvature="0" /></g></g></g><g
           id="g903"><g
             id="g905" /><g
             id="g915"><g
               clip-path="url(#clipPath909)"
               id="g913"><path
                 d="m 841.33,109.699 c -63.051,53.25 -139.98,94.677 -220.762,122.08 -166.422,56.518 -335.183,50.18 -467.555,19.879 C 95.289,238.413 44.569,221.305 0.238,203.387 v 1.705 c 49.041,20.221 106.055,39.529 171.727,53.504 135.352,28.808 306.423,30.842 471.141,-30.262 72.556,-26.917 141.085,-65.292 198.224,-112.959 z"
                 style="fill:#00adef;fill-opacity:1;fill-rule:nonzero;stroke:none"
                 id="path911"
                 inkscape:connector-curvature="0" /></g></g></g><g
           id="g917"><g
             id="g919" /><g
             id="g929"><g
               clip-path="url(#clipPath923)"
               id="g927"><path
                 d="M 841.33,107.971 C 791.396,153.598 732.019,192.324 668.103,222.238 498.772,301.366 312.739,312.434 161.654,286.951 101.933,276.863 48.188,261.743 0.238,244.315 v 1.647 c 53.95,19.986 115.332,37.133 184.242,47.335 77.615,11.448 163.48,13.571 252.372,1.131 86.857,-12.221 175.199,-38.271 256.725,-79.818 54.23,-27.628 104.513,-61.755 147.753,-100.861 z"
                 style="fill:#00adef;fill-opacity:1;fill-rule:nonzero;stroke:none"
                 id="path925"
                 inkscape:connector-curvature="0" /></g></g></g><g
           id="g931"><g
             id="g933" /><g
             id="g943"><g
               clip-path="url(#clipPath937)"
               id="g941"><path
                 d="m 841.33,97.721 c -8.522,8.522 -17.359,16.856 -26.489,24.98 C 750.991,179.461 673.78,225.234 591.286,257.64 440.961,316.554 281.266,327.944 144.157,307.192 92.39,299.363 44.34,287.224 0.238,272.324 v 1.617 c 51.798,17.821 109.089,31.894 171.44,39.62 149.654,18.422 323.391,-2.18 478.943,-77.269 71.518,-34.573 137.013,-79.659 190.709,-132.582 z"
                 style="fill:#00adef;fill-opacity:1;fill-rule:nonzero;stroke:none"
                 id="path939"
                 inkscape:connector-curvature="0" /></g></g></g><g
           id="g945"><g
             id="g947" /><g
             id="g957"><g
               clip-path="url(#clipPath951)"
               id="g955"><path
                 d="m 841.33,78.266 c -22.693,24.813 -47.871,48.392 -75.143,70.367 C 673.67,223.088 559.004,276.964 439.734,305.007 283.071,341.73 128.999,329.477 0.238,289.46 v 3.436 c 34.927,11.261 71.928,20.411 110.743,26.857 117.136,19.394 248.338,13.612 375.465,-23.179 115.649,-33.515 224.558,-91.58 310.123,-168.019 15.8,-14.127 30.749,-28.813 44.761,-43.962 z"
                 style="fill:#00adef;fill-opacity:1;fill-rule:nonzero;stroke:none"
                 id="path953"
                 inkscape:connector-curvature="0" /></g></g></g><g
           id="g959"><g
             id="g961" /><g
             id="g971"><g
               clip-path="url(#clipPath965)"
               id="g969"><path
                 d="M 841.33,44.152 C 811.832,80.281 777.401,114.815 738.581,146.574 682.902,192.079 618.618,231.56 548.537,262.25 475.953,293.992 398.03,315.965 318.99,326.367 208.049,340.933 98.014,330.724 0.238,301.945 v 1.221 c 108.718,32.324 232.84,41.949 356.61,20.557 79.439,-13.8 157.014,-39.082 228.426,-74.011 68.701,-33.623 130.941,-75.738 183.903,-123.462 26.521,-23.894 50.635,-49.11 72.153,-75.188 z"
                 style="fill:#00adef;fill-opacity:1;fill-rule:nonzero;stroke:none"
                 id="path967"
                 inkscape:connector-curvature="0" /></g></g></g><g
           id="g973"><g
             id="g975" /><g
             id="g985"><g
               clip-path="url(#clipPath979)"
               id="g983"><path
                 d="m 835.328,0.033 c -19.184,26.208 -40.867,52.371 -65.215,77.928 -39.949,41.902 -87.062,82.134 -140.986,117.874 -56.057,37.123 -119.138,69.174 -187.365,93.046 -69.968,24.447 -144.655,39.98 -220.297,43.935 -75.53,3.911 -150.947,-4.522 -221.227,-23.823 v 1.133 c 79.935,22.242 166.667,30.594 252.845,23.003 76.032,-6.771 150.501,-24.941 219.785,-51.759 67.386,-26.118 129.227,-60.122 183.739,-98.899 52.35,-37.222 97.679,-78.649 135.741,-121.451 17.871,-20.108 34.137,-40.523 48.886,-60.987 z"
                 style="fill:#00adef;fill-opacity:1;fill-rule:nonzero;stroke:none"
                 id="path981"
                 inkscape:connector-curvature="0" /></g></g></g><g
           id="g987"><g
             id="g989" /><g
             id="g999"><g
               clip-path="url(#clipPath993)"
               id="g997"><path
                 d="M 773.697,0.033 C 768.324,7.302 762.732,14.647 756.904,22.06 703.961,89.318 629.44,162.994 528.607,222.679 421.525,286.017 285.931,331.647 142.424,329.821 94.501,329.157 46.528,322.939 0.238,311.418 v 1.112 c 54.909,13.89 112.264,20.409 169.19,19.209 C 313.277,328.54 447.086,279.199 552.017,213.587 650.563,151.911 722.798,77.43 774.056,9.942 c 2.516,-3.317 4.988,-6.621 7.415,-9.909 z"
                 style="fill:#00adef;fill-opacity:1;fill-rule:nonzero;stroke:none"
                 id="path995"
                 inkscape:connector-curvature="0" /></g></g></g><g
           id="g1001"><g
             id="g1003" /><g
             id="g1013"><g
               clip-path="url(#clipPath1007)"
               id="g1011"><path
                 d="m 670.97,0.033 c -9.768,17.994 -21.412,36.782 -35.25,56.308 -41.54,58.357 -105.77,123.45 -197.535,176.693 -96.56,55.933 -223.136,96.812 -359.362,87.729 -26.217,-1.761 -52.545,-5.439 -78.585,-11.025 v 1.042 c 33.762,7.394 68.051,11.642 102.009,12.748 136.289,4.254 260.74,-39.69 355.249,-97.145 89.695,-54.56 152.168,-119.764 192.789,-177.575 11.793,-16.873 22,-33.145 30.823,-48.775 z"
                 style="fill:#00adef;fill-opacity:1;fill-rule:nonzero;stroke:none"
                 id="path1009"
                 inkscape:connector-curvature="0" /></g></g></g><g
           id="g1015"><g
             id="g1017" /><g
             id="g1027"><g
               clip-path="url(#clipPath1021)"
               id="g1025"><path
                 d="m 531.813,0.033 c -3.582,20.091 -9.357,40.063 -17.856,60.143 -25.22,59.262 -76.051,120.359 -156.412,170.587 -84.308,52.663 -200.802,90.948 -329.139,77.29 -9.373,-1.006 -18.771,-2.297 -28.168,-3.874 v 1 c 16.247,2.819 32.506,4.799 48.654,5.949 128.095,9.008 242.093,-32.015 324.159,-85.818 78.131,-51.236 127.238,-112.043 151.521,-170.387 7.625,-18.393 12.984,-36.632 16.482,-54.89 z"
                 style="fill:#00adef;fill-opacity:1;fill-rule:nonzero;stroke:none"
                 id="path1023"
                 inkscape:connector-curvature="0" /></g></g></g><g
           id="g1029"><g
             id="g1031" /><g
             id="g1041"><g
               clip-path="url(#clipPath1035)"
               id="g1039"><path
                 d="m 402.563,0.033 c -0.311,12.739 -1.224,25.117 -2.912,37.171 -9.994,70.608 -45.139,135.261 -115.147,186.064 -68.51,49.633 -170.397,83.417 -284.266,71.382 v 0.967 c 2.324,0.258 4.644,0.497 6.961,0.716 117.734,10.873 221.304,-25.959 289.583,-78.237 67.459,-51.797 100.607,-116.133 109.537,-185.94 1.306,-10.465 2.047,-21.165 2.334,-32.123 z"
                 style="fill:#00adef;fill-opacity:1;fill-rule:nonzero;stroke:none"
                 id="path1037"
                 inkscape:connector-curvature="0" /></g></g></g><g
           id="g1043"><g
             id="g1045" /><g
             id="g1055"><g
               clip-path="url(#clipPath1049)"
               id="g1053"><path
                 d="m 298.187,0.033 c -0.868,83.163 -21.718,151.581 -77.014,203.501 -50.536,47.342 -129.115,79.66 -220.935,77.375 v 0.829 c 97.358,2.789 179.247,-32.659 230.228,-83.701 51.353,-51.558 70.371,-117.963 71.301,-198.004 z"
                 style="fill:#00adef;fill-opacity:1;fill-rule:nonzero;stroke:none"
                 id="path1051"
                 inkscape:connector-curvature="0" /></g></g></g><g
           id="g1057"><g
             id="g1059" /><g
             id="g1069"><g
               clip-path="url(#clipPath1063)"
               id="g1067"><path
                 d="m 213.132,0.033 c -2.489,72.659 -14.54,131.256 -48.639,176.26 -35.491,46.633 -93.289,79.075 -164.255,85.793 v 0.643 C 75.62,255.923 135.774,220.569 171.193,169.969 201.978,125.73 212.702,69.252 214.976,0.033 Z"
                 style="fill:#00adef;fill-opacity:1;fill-rule:nonzero;stroke:none"
                 id="path1065"
                 inkscape:connector-curvature="0" /></g></g></g><g
           id="g1071"><g
             id="g1073" /><g
             id="g1083"><g
               clip-path="url(#clipPath1077)"
               id="g1081"><path
                 d="M 142.602,0.033 C 139.501,56.905 132.395,104.227 113.559,141.915 90.444,187.83 51.122,221.137 0.238,236.061 v 0.449 C 54.454,220.864 95.341,184.597 118.05,134.35 134.456,98.008 140.712,53.182 143.471,0.033 Z"
                 style="fill:#00adef;fill-opacity:1;fill-rule:nonzero;stroke:none"
                 id="path1079"
                 inkscape:connector-curvature="0" /></g></g></g><g
           id="g1085"><g
             id="g1087" /><g
             id="g1097"><g
               clip-path="url(#clipPath1091)"
               id="g1095"><path
                 d="M 83.761,0.033 C 80.977,38.394 76.595,71.992 67.728,100.454 54.404,143.051 31.409,176.155 0.238,197.646 v -1.812 C 31.291,175.047 53.087,144.365 66.141,105.377 75.869,76.074 80.384,40.611 83.133,0.033 Z"
                 style="fill:#00adef;fill-opacity:1;fill-rule:nonzero;stroke:none"
                 id="path1093"
                 inkscape:connector-curvature="0" /></g></g></g><g
           id="g1099"><g
             id="g1101" /><g
             id="g1111"><g
               clip-path="url(#clipPath1105)"
               id="g1109"><path
                 d="M 33.809,0.033 C 31.99,18.615 29.761,35.907 26.748,51.802 20.943,82.104 12.096,108.343 0.238,130.2 v -1.381 C 13.103,104.621 22.366,75.12 28.116,40.706 30.243,27.977 31.938,14.399 33.375,0.033 Z"
                 style="fill:#00adef;fill-opacity:1;fill-rule:nonzero;stroke:none"
                 id="path1107"
                 inkscape:connector-curvature="0" /></g></g></g></g></g></g></svg>